<?xml version="1.0" encoding="utf-8"?>
<!-- Generator: Adobe Illustrator 26.0.2, SVG Export Plug-In . SVG Version: 6.00 Build 0)  -->
<svg version="1.1" xmlns="http://www.w3.org/2000/svg" xmlns:xlink="http://www.w3.org/1999/xlink" x="0px" y="0px"
	 viewBox="0 0 3174.5 3174.5" style="enable-background:new 0 0 3174.5 3174.5;" xml:space="preserve">
<style type="text/css">
	.st0{fill:#231F20;}
</style>
<g id="background">
</g>
<g id="Layer_2">
	<path class="st0" d="M3145.4,1284.2c-19.5-100.5-48.8-199.5-87.2-294.2c-39.1-96.5-88-189.4-145.4-276.3
		c-58.8-89.1-127.2-172.8-203.3-248.9c-76.1-76.1-159.8-144.5-248.9-203.3c-86.9-57.4-179.8-106.3-276.3-145.4
		c-94.7-38.4-193.6-67.7-294.2-87.2c-99.5-19.3-201.5-29-303-29c-101.5,0-203.5,9.8-303,29c-100.5,19.5-199.5,48.8-294.2,87.2
		c-96.5,39.1-189.4,88-276.3,145.4C624.7,320.4,541,388.8,464.9,464.9C388.8,541,320.4,624.7,261.6,713.8
		C204.3,800.6,155.3,893.6,116.2,990c-38.4,94.7-67.7,193.6-87.2,294.2c-19.3,99.5-29,201.5-29,303c0,101.5,9.8,203.5,29,303
		c19.5,100.5,48.8,199.5,87.2,294.2c30.7,75.7,67.5,149.2,109.6,219.3L61,3018.9c-15.4,57.4,37.2,110,94.6,94.6l615.1-164.8
		c70.1,42.1,143.7,78.9,219.3,109.6c94.7,38.4,193.6,67.7,294.2,87.2c99.5,19.3,201.5,29,303,29c101.5,0,203.5-9.8,303-29
		c100.5-19.5,199.5-48.8,294.2-87.2c96.5-39.1,189.4-88,276.3-145.4c89.1-58.8,172.8-127.2,248.9-203.3
		c76.1-76.1,144.5-159.8,203.3-248.9c57.4-86.9,106.3-179.8,145.4-276.3c38.4-94.7,67.7-193.6,87.2-294.2c19.3-99.5,29-201.5,29-303
		C3174.5,1485.7,3164.7,1383.8,3145.4,1284.2z M2484.4,2484.4c-494.7,494.7-1299.7,494.7-1794.4,0S195.3,1184.8,690,690
		s1299.7-494.7,1794.4,0S2979.1,1989.7,2484.4,2484.4z M1852.7,1255.4l-275.3,954.2c-14.5,54.5-21.7,90.7-21.7,108.4
		c0,8.9,3.9,17.8,11.7,26.7c7.8,8.9,16.1,13.3,25,13.3c15.6,0,30.6-6.7,45-20c41.1-33.4,89.5-93.4,145.1-180.2l46.7,26.7
		c-135.7,235.8-279.7,353.7-432.1,353.7c-57.8,0-104-16.4-138.5-49.2c-34.5-32.8-51.7-74.2-51.7-124.3c0-33.4,7.8-75.6,23.4-126.8
		l186.8-642.3c17.8-61.1,26.7-107.3,26.7-138.5c0-20-8.6-37.8-25.9-53.4c-17.3-15.6-40.3-23.4-69.2-23.4c-14.5,0-30.6,0.6-48.4,1.7
		l16.7-53.4l455.4-73.4H1852.7z M1769.2,636.5c55.6,0,102.6,19.5,141,58.4c38.4,38.9,57.6,85.7,57.6,140.1
		c0,54.5-19.5,100.9-58.4,139.3c-38.9,38.4-85.7,57.6-140.1,57.6c-53.4,0-99.3-19.2-137.6-57.6c-38.4-38.4-57.6-84.8-57.6-139.3
		c0-54.5,18.9-101.2,56.7-140.1C1668.6,656,1714.7,636.5,1769.2,636.5z"/>
</g>
</svg>
